<svg width="490" height="164" viewBox="0 0 490 164" fill="none" xmlns="http://www.w3.org/2000/svg">
<g clip-path="url(#clip0_11_115)">
<path d="M122.094 158H106.25L130.391 88.1562H149.375L173.469 158H157.672L152.469 142.062H127.25L122.094 158ZM131 130.531H148.719L140.141 104.094H139.578L131 130.531ZM235.419 88.1562V158H222.622L192.294 114.078H191.731V158H177.012V88.1562H189.95L220.091 132.078H220.7V88.1562H235.419ZM254.806 158H238.962L263.103 88.1562H282.087L306.181 158H290.384L285.181 142.062H259.962L254.806 158ZM263.712 130.531H281.431L272.853 104.094H272.291L263.712 130.531ZM325.288 158L305.319 88.1562H321.444L333.022 136.672H333.631L346.334 88.1562H360.163L372.819 136.812H373.475L385.006 88.1562H401.178L381.163 158H366.772L353.506 112.344H352.944L339.725 158H325.288ZM418.925 88.1562V158H404.206V88.1562H418.925ZM451.062 158H426.312V88.1562H451.25C458.281 88.1562 464.328 89.5625 469.391 92.375C474.453 95.1562 478.344 99.1562 481.062 104.375C483.812 109.562 485.188 115.781 485.188 123.031C485.188 130.312 483.812 136.562 481.062 141.781C478.344 147 474.438 151.016 469.344 153.828C464.25 156.609 458.156 158 451.062 158ZM441.031 145.344H450.406C457 145.344 462 143.578 465.406 140.047C468.812 136.516 470.516 130.844 470.516 123.031C470.516 115.281 468.812 109.641 465.406 106.109C462 102.578 457 100.812 450.406 100.812H441.031V145.344Z" fill="#0D517D"/>
<path d="M35.3971 51.8928C41.1011 51.0451 47.6862 50.5558 54.4254 51.0345V85.8118H75.2262C84.1455 85.8118 90.7535 83.5657 95.0504 79.0735C99.4124 74.5162 101.593 68.6568 101.593 61.4954C101.593 57.6692 100.992 54.2379 99.7906 51.2005C106.825 50.6159 113.725 51.1101 119.669 51.9934C124.493 52.7105 128.586 53.667 131.46 54.4417C131.977 54.5811 132.453 54.7154 132.887 54.8401C133.117 56.9966 133.234 59.2149 133.234 61.4954C133.234 71.1308 131.151 79.6269 126.984 86.9837C122.817 94.3404 116.795 100.102 108.918 104.269C101.04 108.37 91.5022 110.421 80.3043 110.421H54.4254V157.589H23.7614V54.3001C26.6266 53.533 30.6586 52.5971 35.3971 51.8928Z" fill="#0D517D"/>
<path d="M22.5587 36.881C58.198 28.8496 76.7706 47.9242 76.7706 47.9242C76.7706 47.9242 56.6921 33.6183 19.0449 45.9164L22.5587 36.881Z" fill="#F7FE72"/>
<path d="M29.0225 25.6764C63.5242 24.7922 77.0216 47.4564 77.0216 47.4564C77.0216 47.4564 61.1463 29.1623 23.9086 33.8273L29.0225 25.6764Z" fill="#D3F78F"/>
<path d="M38.1815 16.3753C70.0646 22.409 77.0216 46.9544 77.0216 46.9544C77.0216 46.9544 66.8423 26.1668 31.5483 23.2488L38.1815 16.3753Z" fill="#BAF78F"/>
<path d="M48.4134 9.2459C76.5867 20.4562 77.2725 46.4525 77.2725 46.4525C77.2725 46.4525 72.7271 23.5173 40.6681 14.7192L48.4134 9.2459Z" fill="#A9F78F"/>
<path d="M132.782 36.9152C97.143 28.8838 78.2765 47.9584 78.2765 47.9584C78.2765 47.9584 98.6489 33.6525 136.296 45.9505L132.782 36.9152Z" fill="#51BBFE"/>
<path d="M126.319 25.6764C91.8169 24.7922 78.0256 47.4564 78.0256 47.4564C78.0256 47.4564 94.1947 29.1623 131.432 33.8273L126.319 25.6764Z" fill="#8FF7F5"/>
<path d="M117.159 16.3753C85.2764 22.409 78.0255 46.9545 78.0255 46.9545C78.0255 46.9545 88.4987 26.1668 123.793 23.2488L117.159 16.3753Z" fill="#8FF7CC"/>
<path d="M106.928 9.24593C78.7544 20.4562 77.7746 46.4525 77.7746 46.4525C77.7746 46.4525 82.614 23.5173 114.673 14.7193L106.928 9.24593Z" fill="#8FF7A7"/>
<path d="M17.0379 47.9097C17.0379 47.9097 50.592 37.1907 72.1791 46.9211C72.2284 46.9433 72.2754 46.9694 72.3198 47.0004C72.6106 47.2036 73.7489 48.0358 73.6808 48.5664C73.6028 49.1745 73.9337 50.1027 73.6808 50.6084C73.1789 51.6123 70.2451 48.9623 70.2451 48.9623C45.649 40.9309 17.5273 50.9539 17.5273 50.9539C16.7861 50.9702 16.2841 50.4682 16.0332 49.4643C15.7822 48.4604 17.0379 47.9097 17.0379 47.9097Z" fill="#0D517D" stroke="#0D517D"/>
<path d="M138.028 48.0098C138.028 48.0098 104.474 37.2908 82.8869 47.0212C82.8376 47.0434 82.7906 47.0695 82.7463 47.1005C82.4555 47.3037 81.3171 48.1359 81.3852 48.6665C81.4632 49.2746 81.1324 50.2028 81.3852 50.7085C81.8872 51.7124 84.8209 49.0624 84.8209 49.0624C109.417 41.031 137.539 51.054 137.539 51.054C138.28 51.0703 138.782 50.5683 139.033 49.5644C139.284 48.5605 138.028 48.0098 138.028 48.0098Z" fill="#0D517D" stroke="#0D517D"/>
<path d="M77.5235 49.4643C75.7662 49.4643 73.5864 47.973 72.6796 47.2895C72.4087 47.0853 72.0571 47.0147 71.7329 47.1145L70.6407 47.4505C69.9061 47.6766 69.6984 48.6018 70.2879 49.0951C71.6563 50.2401 73.8113 51.885 75.2647 52.2251C76.7917 52.5823 77.7414 52.5266 79.2804 52.2251C80.8655 51.9145 83.6218 50.1674 85.3236 49.0073C85.9752 48.5631 85.8476 47.5883 85.1116 47.3052L84.0585 46.9002C83.7399 46.7777 83.3822 46.8251 83.1002 47.0174C82.0397 47.741 79.3247 49.4643 77.5235 49.4643Z" fill="#0D517D" stroke="#0D517D"/>
</g>
<defs>
<clipPath id="clip0_11_115">
<rect width="490" height="164" fill="white"/>
</clipPath>
</defs>
</svg>
