<svg width="518" height="164" viewBox="0 0 518 164" fill="none" xmlns="http://www.w3.org/2000/svg">
<g clip-path="url(#clip0_11_231)">
<path d="M150.094 158H134.25L158.391 88.1562H177.375L201.469 158H185.672L180.469 142.062H155.25L150.094 158ZM159 130.531H176.719L168.141 104.094H167.578L159 130.531ZM263.419 88.1562V158H250.622L220.294 114.078H219.731V158H205.012V88.1562H217.95L248.091 132.078H248.7V88.1562H263.419ZM282.806 158H266.962L291.103 88.1562H310.087L334.181 158H318.384L313.181 142.062H287.962L282.806 158ZM291.712 130.531H309.431L300.853 104.094H300.291L291.712 130.531ZM353.288 158L333.319 88.1562H349.444L361.022 136.672H361.631L374.334 88.1562H388.163L400.819 136.812H401.475L413.006 88.1562H429.178L409.163 158H394.772L381.506 112.344H380.944L367.725 158H353.288ZM446.925 88.1562V158H432.206V88.1562H446.925ZM479.062 158H454.312V88.1562H479.25C486.281 88.1562 492.328 89.5625 497.391 92.375C502.453 95.1562 506.344 99.1562 509.062 104.375C511.812 109.562 513.188 115.781 513.188 123.031C513.188 130.312 511.812 136.562 509.062 141.781C506.344 147 502.438 151.016 497.344 153.828C492.25 156.609 486.156 158 479.062 158ZM469.031 145.344H478.406C485 145.344 490 143.578 493.406 140.047C496.812 136.516 498.516 130.844 498.516 123.031C498.516 115.281 496.812 109.641 493.406 106.109C490 102.578 485 100.812 478.406 100.812H469.031V145.344Z" fill="#0D517D"/>
<path d="M30.3977 58.7099C39.9237 57.2901 51.9265 56.858 63.0513 60.2537C63.5868 60.6901 64.202 61.1699 64.848 61.6297C65.9018 62.3797 67.6427 63.5291 69.4492 63.9531C71.772 64.4981 73.4006 64.3774 75.3847 63.9876C77.171 63.6367 79.1124 62.5613 80.3564 61.8236C81.2552 61.2906 82.1222 60.7267 82.8415 60.2408C93.8607 56.9678 105.702 57.4067 115.121 58.8105C119.986 59.5355 124.111 60.5038 127.01 61.2873C128.457 61.6785 129.594 62.022 130.357 62.2642C130.739 62.3853 131.027 62.4813 131.214 62.5445C131.308 62.576 131.376 62.5995 131.418 62.614C131.439 62.6213 131.453 62.6261 131.461 62.6288C131.463 62.6296 131.465 62.6304 131.466 62.6308L131.826 62.7596C132.229 63.3838 132.718 64.0784 133.271 64.8273C134.695 66.7553 136.536 69.0299 138.433 71.3795C140.328 73.7266 142.277 76.148 143.91 78.3619C145.54 80.5708 146.87 82.5932 147.512 84.1399C147.803 84.8385 147.984 85.4901 147.999 86.1455C148.014 86.8047 147.86 87.452 147.504 88.1422C147.183 88.7633 146.715 89.2314 146.333 89.5415C146.141 89.6972 145.968 89.8152 145.843 89.8947C145.78 89.9344 145.729 89.9649 145.693 89.9855C145.675 89.9958 145.66 90.0037 145.65 90.0092C145.647 90.0111 145.643 90.0123 145.641 90.0136V90.0146C145.64 90.0149 145.639 90.0151 145.638 90.0156C145.637 90.0164 145.636 90.0171 145.635 90.0176L145.634 90.0181L145.633 90.0186C145.633 90.019 145.631 90.0196 145.631 90.0201C145.623 90.0241 145.613 90.0301 145.599 90.0378C145.571 90.0533 145.531 90.0765 145.477 90.1059C145.37 90.1649 145.212 90.2502 145.008 90.3575C144.599 90.5722 144.006 90.8743 143.262 91.2234C141.775 91.9215 139.686 92.8099 137.28 93.5719C137.119 93.6229 137.026 93.7052 136.966 93.8048C136.902 93.9116 136.865 94.057 136.853 94.2464C136.841 94.4351 136.855 94.6485 136.878 94.8799C136.901 95.1024 136.934 95.3561 136.951 95.5854C137.072 97.1658 137.614 98.1339 138.265 99.1289C138.919 100.129 139.699 101.172 140.216 102.856C140.543 103.924 140.194 104.698 139.69 105.582C139.299 106.268 138.485 106.801 137.813 107.154C137.487 107.325 137.182 107.459 136.952 107.554C137.128 107.701 137.355 107.904 137.603 108.151C138.149 108.699 138.803 109.484 139.199 110.409C139.361 110.79 139.461 111.153 139.467 111.523C139.473 111.895 139.384 112.259 139.193 112.643C138.789 113.452 138.3 113.854 137.843 114.206C137.391 114.555 136.993 114.841 136.669 115.43C135.967 116.705 135.866 117.581 135.698 119.062L135.691 119.126C135.493 120.876 135.975 122.185 136.559 123.539C137.142 124.889 137.834 126.296 137.959 128.175C138.049 129.517 138.261 130.388 137.954 131.783C137.491 133.883 136.616 134.987 135.113 136.456C133.825 137.715 131.689 138.486 129.916 138.943C129.022 139.173 128.207 139.326 127.615 139.422C127.32 139.47 127.079 139.504 126.912 139.526C126.829 139.537 126.764 139.545 126.72 139.55C126.697 139.553 126.68 139.555 126.668 139.556C126.663 139.557 126.658 139.557 126.655 139.557C126.654 139.558 126.652 139.558 126.652 139.558H126.65L126.637 139.559H107.731C106.72 139.559 105.967 139.911 105.371 140.525C104.766 141.148 104.313 142.054 103.94 143.176C103.076 145.774 102.713 147.274 102.184 149.965C101.889 151.467 101.638 153.417 101.461 154.995C101.372 155.783 101.302 156.477 101.255 156.973C101.231 157.222 101.212 157.421 101.199 157.558C101.193 157.626 101.189 157.679 101.186 157.715C101.184 157.733 101.183 157.746 101.182 157.755C101.181 157.76 101.181 157.763 101.181 157.766C101.181 157.767 101.181 157.768 101.181 157.768V157.769L101.161 158H28.32L32.1635 140.524C32.1639 140.522 32.1652 140.519 32.1659 140.514C32.1675 140.505 32.1698 140.491 32.1728 140.473C32.1789 140.436 32.1874 140.381 32.1989 140.309C32.222 140.164 32.2559 139.951 32.2973 139.675C32.3802 139.124 32.4949 138.325 32.6225 137.332C32.8779 135.347 33.1843 132.589 33.3886 129.501C33.7978 123.314 33.7938 115.84 32.1714 110.583C30.5508 105.333 27.1198 101.873 23.6858 97.2373C20.2615 92.6148 16.9042 86.8956 15.5393 77.2148C14.5859 72.5711 14.1292 67.558 14.3196 62.4384C14.5069 62.3752 14.7901 62.2813 15.1614 62.1636C15.9252 61.9213 17.0617 61.5778 18.509 61.1867C21.4078 60.4032 25.5332 59.4349 30.3977 58.7099Z" fill="#0D517D"/>
<path d="M17.5828 44.1162C53.3532 36.0325 71.9941 55.2311 71.9941 55.2311C71.9941 55.2311 51.8418 40.8322 14.0562 53.2102L17.5828 44.1162Z" fill="#F7FE72"/>
<path d="M24.0704 32.8043C58.6989 31.9144 72.246 54.7259 72.246 54.7259C72.246 54.7259 56.3123 36.3128 18.9377 41.0082L24.0704 32.8043Z" fill="#D3F78F"/>
<path d="M33.2631 23.4428C65.2634 29.5157 72.246 54.2208 72.246 54.2208C72.246 54.2208 62.0293 33.298 26.6054 30.361L33.2631 23.4428Z" fill="#BAF78F"/>
<path d="M43.5326 16.267C71.8095 27.5502 72.4979 53.7155 72.4979 53.7155C72.4979 53.7155 67.9357 30.6312 35.7589 21.7759L43.5326 16.267Z" fill="#A9F78F"/>
<path d="M128.212 44.1162C92.4415 36.0325 73.5056 55.2311 73.5056 55.2311C73.5056 55.2311 93.9529 40.8322 131.739 53.2102L128.212 44.1162Z" fill="#51BBFE"/>
<path d="M121.724 32.8043C87.0957 31.9143 73.2536 54.7259 73.2536 54.7259C73.2536 54.7259 89.4822 36.3128 126.857 41.0081L121.724 32.8043Z" fill="#8FF7F5"/>
<path d="M112.531 23.4428C80.5312 29.5157 73.2536 54.2207 73.2536 54.2207C73.2536 54.2207 83.7653 33.298 119.189 30.361L112.531 23.4428Z" fill="#8FF7CC"/>
<path d="M102.262 16.267C73.9851 27.5502 73.0017 53.7155 73.0017 53.7155C73.0017 53.7155 77.8588 30.6312 110.036 21.7759L102.262 16.267Z" fill="#8FF7A7"/>
<path d="M12.0417 55.1821C12.0417 55.1821 45.7194 44.3934 67.3859 54.1872C67.4353 54.2095 67.4823 54.2356 67.5266 54.2667C67.8182 54.471 68.9613 55.3089 68.8929 55.8431C68.8146 56.4551 69.1467 57.3894 68.8929 57.8983C68.3891 58.9088 65.4446 56.2416 65.4446 56.2416C40.758 48.158 12.5329 58.2461 12.5329 58.2461C11.789 58.2625 11.2852 57.7573 11.0333 56.7468C10.7814 55.7364 12.0417 55.1821 12.0417 55.1821Z" fill="#0D517D" stroke="#0D517D"/>
<path d="M133.477 55.2828C133.477 55.2828 99.7992 44.4941 78.1327 54.2879C78.0833 54.3102 78.0363 54.3363 77.9919 54.3674C77.7003 54.5717 76.5573 55.4096 76.6256 55.9438C76.7039 56.5558 76.3719 57.4901 76.6256 57.999C77.1294 59.0095 80.074 56.3423 80.074 56.3423C104.761 48.2587 132.986 58.3468 132.986 58.3468C133.73 58.3632 134.233 57.858 134.485 56.8475C134.737 55.8371 133.477 55.2828 133.477 55.2828Z" fill="#0D517D" stroke="#0D517D"/>
<path d="M72.7498 56.7468C70.9854 56.7468 68.7967 55.2448 67.8871 54.5571C67.6159 54.3521 67.2634 54.2812 66.9385 54.3815L65.831 54.7232C65.0975 54.9495 64.8898 55.8732 65.4777 56.3669C66.8506 57.5197 69.0204 59.1824 70.4827 59.5255C72.0153 59.8851 72.9685 59.829 74.5131 59.5255C76.1075 59.2123 78.8827 57.4467 80.5898 56.2791C81.2399 55.8345 81.112 54.8615 80.3772 54.5781L79.3082 54.1657C78.9889 54.0426 78.6303 54.0902 78.3479 54.2834C77.284 55.0113 74.5581 56.7468 72.7498 56.7468Z" fill="#0D517D" stroke="#0D517D"/>
</g>
<defs>
<clipPath id="clip0_11_231">
<rect width="518" height="164" fill="white"/>
</clipPath>
</defs>
</svg>
